# xmcd
#
# Track frame offsets:
#	150
#	11235
#	26405
#	42117
#	54570
#	72300
#	87605
#
# Disc length: 1335 seconds
#
# Revision: 1
# Processed by: cddbd v1.5.2PL0 Copyright (c) Steve Scherf et al.
# Submitted via: audiograbber 1.83.01
#
DISCID=59053507
DTITLE=Eddy Raven - Seven #1 Hits In Five Years
DYEAR=1900
DGENRE=
TTITLE0=I Got Mexico
TTITLE1=Sometimes A Lady
TTITLE2=Shine, Shine, Shine
TTITLE3=I'm Gonna Get You
TTITLE4=Joe Knows How To Live
TTITLE5=In A Letter To You
TTITLE6=Bayou Boys
EXTD=
EXTT0=
EXTT1=
EXTT2=
EXTT3=
EXTT4=
EXTT5=
EXTT6=
PLAYORDER=
